# xmcd
#
# Track frame offsets: 
#        150
#        19849
#        35566
#        52366
#        57104
#        74326
#        92224
#        104922
#        119836
#        137131
#        156043
#        175661
#
# Disc length: 2575 seconds
#
# Revision: 0
# Processed by: cddbd v1.5.2PL0 Copyright (c) Steve Scherf et al.
# Submitted via: ExactAudioCopy v0.95b4
#
DISCID=b60a0d0c
DTITLE=Zac Brown Band - The Foundation
DYEAR=1900
DGENRE=Country
TTITLE0=Toes
TTITLE1=Whatever It Is
TTITLE2=Where The Boat Leaves From
TTITLE3=Violin Intro To Free
TTITLE4=Free
TTITLE5=Chicken Fried
TTITLE6=MAry
TTITLE7=Different Kind of Fine
TTITLE8=Highway 20 Ride
TTITLE9=It's Not Ok
TTITLE10=Jolene
TTITLE11=Sic 'Em On A Chicken
EXTD=
EXTT0=
EXTT1=
EXTT2=
EXTT3=
EXTT4=
EXTT5=
EXTT6=
EXTT7=
EXTT8=
EXTT9=
EXTT10=
EXTT11=
PLAYORDER=
